# xmcd CD database file generated by OrangeCD 5.2
#
# Track frame offsets:
#	150
#	35012
#	98435
#	119418
#	143413
#	198526
#	228157
#	289621
#
# Disc length: 4213 seconds
#
# Revision: 0
# Processed by: cddbd v1.5.1PL0 Copyright (c) Steve Scherf et al.
# Submitted via: OrangeCD 5.2
#
DISCID=65107308
DTITLE=Deborah Coleman - Outback Lodge, Charlottesville, VA
DYEAR=2002
DGENRE=Blues
TTITLE0=I Can't Lose
TTITLE1=Don't Lie To Me
TTITLE2=Torn in Two
TTITLE3=Another Hoping Fool
TTITLE4=I'm a Woman
TTITLE5=They Raided The Joint
TTITLE6=Goodbye Misery
TTITLE7=Travelin' South
EXTD=
EXTT0=
EXTT1=
EXTT2=
EXTT3=
EXTT4=
EXTT5=
EXTT6=
EXTT7=
PLAYORDER=
